<mxfile host="app.diagrams.net" agent="Mozilla/5.0 (Macintosh; Intel Mac OS X 10_15_7) AppleWebKit/537.36 (KHTML, like Gecko) Chrome/128.0.0.0 Safari/537.36" version="24.7.13">
  <diagram name="Page-1" id="74e2e168-ea6b-b213-b513-2b3c1d86103e">
    <mxGraphModel dx="1434" dy="761" grid="1" gridSize="10" guides="1" tooltips="1" connect="1" arrows="1" fold="1" page="1" pageScale="1" pageWidth="1100" pageHeight="850" background="none" math="0" shadow="0">
      <root>
        <mxCell id="0" />
        <mxCell id="1" parent="0" />
        <mxCell id="77e6c97f196da883-1" value="iam对接方案" style="swimlane;html=1;childLayout=stackLayout;startSize=20;rounded=0;shadow=0;labelBackgroundColor=none;strokeWidth=1;fontFamily=Verdana;fontSize=8;align=center;" parent="1" vertex="1">
          <mxGeometry x="70" y="40" width="640" height="750" as="geometry" />
        </mxCell>
        <mxCell id="77e6c97f196da883-2" value="ParaCloud WEB" style="swimlane;html=1;startSize=20;fontSize=8;" parent="77e6c97f196da883-1" vertex="1">
          <mxGeometry y="20" width="160" height="730" as="geometry" />
        </mxCell>
        <mxCell id="MH0tUtlU9Yjto3vKP2HL-6" style="edgeStyle=orthogonalEdgeStyle;rounded=0;orthogonalLoop=1;jettySize=auto;html=1;exitX=0.5;exitY=1;exitDx=0;exitDy=0;entryX=0.5;entryY=0;entryDx=0;entryDy=0;" edge="1" parent="77e6c97f196da883-2" source="77e6c97f196da883-8" target="MH0tUtlU9Yjto3vKP2HL-4">
          <mxGeometry relative="1" as="geometry" />
        </mxCell>
        <mxCell id="77e6c97f196da883-8" value="用户打开Paracloud页面" style="rounded=1;whiteSpace=wrap;html=1;shadow=0;labelBackgroundColor=none;strokeWidth=1;fontFamily=Verdana;fontSize=12;align=center;" parent="77e6c97f196da883-2" vertex="1">
          <mxGeometry x="20" y="65" width="100" height="60" as="geometry" />
        </mxCell>
        <mxCell id="MH0tUtlU9Yjto3vKP2HL-8" style="edgeStyle=orthogonalEdgeStyle;rounded=0;orthogonalLoop=1;jettySize=auto;html=1;exitX=0.5;exitY=1;exitDx=0;exitDy=0;" edge="1" parent="77e6c97f196da883-2" source="MH0tUtlU9Yjto3vKP2HL-4" target="MH0tUtlU9Yjto3vKP2HL-7">
          <mxGeometry relative="1" as="geometry" />
        </mxCell>
        <mxCell id="MH0tUtlU9Yjto3vKP2HL-9" value="Y" style="edgeLabel;html=1;align=center;verticalAlign=middle;resizable=0;points=[];" vertex="1" connectable="0" parent="MH0tUtlU9Yjto3vKP2HL-8">
          <mxGeometry x="-0.2754" y="3" relative="1" as="geometry">
            <mxPoint as="offset" />
          </mxGeometry>
        </mxCell>
        <mxCell id="MH0tUtlU9Yjto3vKP2HL-4" value="判断是否已登陆" style="rhombus;whiteSpace=wrap;html=1;rounded=1;" vertex="1" parent="77e6c97f196da883-2">
          <mxGeometry x="20" y="160" width="100" height="75" as="geometry" />
        </mxCell>
        <mxCell id="MH0tUtlU9Yjto3vKP2HL-7" value="进入系统" style="ellipse;whiteSpace=wrap;html=1;aspect=fixed;" vertex="1" parent="77e6c97f196da883-2">
          <mxGeometry x="45" y="650" width="50" height="50" as="geometry" />
        </mxCell>
        <mxCell id="77e6c97f196da883-3" value="ParaCloud SERVER" style="swimlane;html=1;startSize=20;" parent="77e6c97f196da883-1" vertex="1">
          <mxGeometry x="160" y="20" width="160" height="730" as="geometry" />
        </mxCell>
        <mxCell id="MH0tUtlU9Yjto3vKP2HL-23" value="获取token并根据TOKEN获取用户信息" style="whiteSpace=wrap;html=1;rounded=1;" vertex="1" parent="77e6c97f196da883-3">
          <mxGeometry x="20" y="467.5" width="120" height="62.5" as="geometry" />
        </mxCell>
        <mxCell id="MH0tUtlU9Yjto3vKP2HL-28" value="登陆授权" style="whiteSpace=wrap;html=1;rounded=1;" vertex="1" parent="77e6c97f196da883-3">
          <mxGeometry x="20" y="560" width="120" height="60" as="geometry" />
        </mxCell>
        <mxCell id="77e6c97f196da883-4" value="IAM WEB" style="swimlane;html=1;startSize=20;" parent="77e6c97f196da883-1" vertex="1">
          <mxGeometry x="320" y="20" width="160" height="730" as="geometry" />
        </mxCell>
        <mxCell id="MH0tUtlU9Yjto3vKP2HL-14" value="" style="edgeStyle=orthogonalEdgeStyle;rounded=0;orthogonalLoop=1;jettySize=auto;html=1;" edge="1" parent="77e6c97f196da883-4" source="MH0tUtlU9Yjto3vKP2HL-10" target="MH0tUtlU9Yjto3vKP2HL-13">
          <mxGeometry relative="1" as="geometry" />
        </mxCell>
        <mxCell id="MH0tUtlU9Yjto3vKP2HL-10" value="打开IMA登陆页面" style="whiteSpace=wrap;html=1;rounded=1;" vertex="1" parent="77e6c97f196da883-4">
          <mxGeometry x="20" y="167.5" width="120" height="60" as="geometry" />
        </mxCell>
        <mxCell id="MH0tUtlU9Yjto3vKP2HL-13" value="输入用户/密码登陆" style="whiteSpace=wrap;html=1;rounded=1;" vertex="1" parent="77e6c97f196da883-4">
          <mxGeometry x="20" y="307.5" width="120" height="60" as="geometry" />
        </mxCell>
        <mxCell id="77e6c97f196da883-5" value="IAM SERVER" style="swimlane;html=1;startSize=20;" parent="77e6c97f196da883-1" vertex="1">
          <mxGeometry x="480" y="20" width="160" height="730" as="geometry" />
        </mxCell>
        <mxCell id="MH0tUtlU9Yjto3vKP2HL-21" value="" style="edgeStyle=none;rounded=0;orthogonalLoop=1;jettySize=auto;html=1;" edge="1" parent="77e6c97f196da883-5" source="MH0tUtlU9Yjto3vKP2HL-15" target="MH0tUtlU9Yjto3vKP2HL-20">
          <mxGeometry relative="1" as="geometry" />
        </mxCell>
        <mxCell id="MH0tUtlU9Yjto3vKP2HL-22" value="Y" style="edgeLabel;html=1;align=center;verticalAlign=middle;resizable=0;points=[];" vertex="1" connectable="0" parent="MH0tUtlU9Yjto3vKP2HL-21">
          <mxGeometry x="-0.182" y="-2" relative="1" as="geometry">
            <mxPoint as="offset" />
          </mxGeometry>
        </mxCell>
        <mxCell id="MH0tUtlU9Yjto3vKP2HL-15" value="校验用户/密码" style="rhombus;whiteSpace=wrap;html=1;rounded=1;" vertex="1" parent="77e6c97f196da883-5">
          <mxGeometry x="40" y="297.5" width="80" height="80" as="geometry" />
        </mxCell>
        <mxCell id="MH0tUtlU9Yjto3vKP2HL-20" value="回调paracloud接口进行登陆" style="whiteSpace=wrap;html=1;rounded=1;" vertex="1" parent="77e6c97f196da883-5">
          <mxGeometry x="20" y="467.5" width="120" height="60" as="geometry" />
        </mxCell>
        <mxCell id="MH0tUtlU9Yjto3vKP2HL-26" value="获取用户信息" style="rhombus;whiteSpace=wrap;html=1;rounded=1;" vertex="1" parent="77e6c97f196da883-5">
          <mxGeometry x="40" y="550" width="80" height="80" as="geometry" />
        </mxCell>
        <mxCell id="MH0tUtlU9Yjto3vKP2HL-11" value="" style="edgeStyle=orthogonalEdgeStyle;rounded=0;orthogonalLoop=1;jettySize=auto;html=1;" edge="1" parent="77e6c97f196da883-1" source="MH0tUtlU9Yjto3vKP2HL-4" target="MH0tUtlU9Yjto3vKP2HL-10">
          <mxGeometry relative="1" as="geometry" />
        </mxCell>
        <mxCell id="MH0tUtlU9Yjto3vKP2HL-12" value="N" style="edgeLabel;html=1;align=center;verticalAlign=middle;resizable=0;points=[];" vertex="1" connectable="0" parent="MH0tUtlU9Yjto3vKP2HL-11">
          <mxGeometry x="-0.0693" y="-1" relative="1" as="geometry">
            <mxPoint as="offset" />
          </mxGeometry>
        </mxCell>
        <mxCell id="MH0tUtlU9Yjto3vKP2HL-16" value="" style="edgeStyle=orthogonalEdgeStyle;rounded=0;orthogonalLoop=1;jettySize=auto;html=1;" edge="1" parent="77e6c97f196da883-1" source="MH0tUtlU9Yjto3vKP2HL-13" target="MH0tUtlU9Yjto3vKP2HL-15">
          <mxGeometry relative="1" as="geometry" />
        </mxCell>
        <mxCell id="MH0tUtlU9Yjto3vKP2HL-18" style="edgeStyle=none;rounded=0;orthogonalLoop=1;jettySize=auto;html=1;exitX=0.5;exitY=0;exitDx=0;exitDy=0;entryX=1;entryY=0.5;entryDx=0;entryDy=0;" edge="1" parent="77e6c97f196da883-1" source="MH0tUtlU9Yjto3vKP2HL-15" target="MH0tUtlU9Yjto3vKP2HL-10">
          <mxGeometry relative="1" as="geometry">
            <Array as="points">
              <mxPoint x="560" y="218" />
            </Array>
          </mxGeometry>
        </mxCell>
        <mxCell id="MH0tUtlU9Yjto3vKP2HL-19" value="N" style="edgeLabel;html=1;align=center;verticalAlign=middle;resizable=0;points=[];" vertex="1" connectable="0" parent="MH0tUtlU9Yjto3vKP2HL-18">
          <mxGeometry x="0.3332" relative="1" as="geometry">
            <mxPoint as="offset" />
          </mxGeometry>
        </mxCell>
        <mxCell id="MH0tUtlU9Yjto3vKP2HL-24" value="" style="edgeStyle=none;rounded=0;orthogonalLoop=1;jettySize=auto;html=1;" edge="1" parent="77e6c97f196da883-1" source="MH0tUtlU9Yjto3vKP2HL-20" target="MH0tUtlU9Yjto3vKP2HL-23">
          <mxGeometry relative="1" as="geometry" />
        </mxCell>
        <mxCell id="MH0tUtlU9Yjto3vKP2HL-27" value="" style="edgeStyle=none;rounded=0;orthogonalLoop=1;jettySize=auto;html=1;" edge="1" parent="77e6c97f196da883-1" source="MH0tUtlU9Yjto3vKP2HL-23" target="MH0tUtlU9Yjto3vKP2HL-26">
          <mxGeometry relative="1" as="geometry" />
        </mxCell>
        <mxCell id="MH0tUtlU9Yjto3vKP2HL-29" value="" style="edgeStyle=none;rounded=0;orthogonalLoop=1;jettySize=auto;html=1;" edge="1" parent="77e6c97f196da883-1" source="MH0tUtlU9Yjto3vKP2HL-26" target="MH0tUtlU9Yjto3vKP2HL-28">
          <mxGeometry relative="1" as="geometry" />
        </mxCell>
        <mxCell id="MH0tUtlU9Yjto3vKP2HL-30" style="edgeStyle=none;rounded=0;orthogonalLoop=1;jettySize=auto;html=1;exitX=0;exitY=0.5;exitDx=0;exitDy=0;entryX=1;entryY=0;entryDx=0;entryDy=0;" edge="1" parent="77e6c97f196da883-1" source="MH0tUtlU9Yjto3vKP2HL-28" target="MH0tUtlU9Yjto3vKP2HL-7">
          <mxGeometry relative="1" as="geometry" />
        </mxCell>
      </root>
    </mxGraphModel>
  </diagram>
</mxfile>
